<?xml version="1.0" standalone="no"?>
<!DOCTYPE svg PUBLIC "-//W3C//DTD SVG 20010904//EN"
 "http://www.w3.org/TR/2001/REC-SVG-20010904/DTD/svg10.dtd">
<svg version="1.0" xmlns="http://www.w3.org/2000/svg"
 width="256.000000pt" height="256.000000pt" viewBox="0 0 256.000000 256.000000"
 preserveAspectRatio="xMidYMid meet">

<g transform="translate(0.000000,256.000000) scale(0.100000,-0.100000)"
fill="#000000" stroke="none">
<path d="M1856 2175 c-88 -24 -176 -75 -241 -139 -64 -63 -93 -109 -115 -183
-11 -37 -17 -43 -40 -43 -49 0 -132 -51 -180 -111 l-44 -56 -27 36 c-61 84
-155 131 -264 131 -49 0 -75 -6 -124 -31 -34 -17 -67 -40 -74 -50 -17 -27 -24
-24 -32 14 -13 61 -45 115 -74 125 -29 10 -106 1 -121 -14 -17 -17 -86 -1086
-75 -1159 17 -115 179 -283 262 -273 l26 3 -2 330 c-1 182 -4 364 -7 405 l-5
75 39 -85 c70 -153 171 -309 282 -440 26 -30 60 -79 76 -109 88 -166 332 -262
560 -220 197 36 365 206 409 414 41 195 -1 364 -177 721 -139 281 -156 363
-93 469 53 91 174 136 226 84 19 -19 21 -30 17 -83 -6 -69 -56 -180 -108 -239
-36 -42 -38 -55 -6 -63 52 -13 172 48 221 111 89 118 88 279 -4 344 -70 50
-198 65 -305 36z m-176 -882 c0 -7 4 -13 8 -13 8 0 42 -69 90 -180 11 -25 25
-70 31 -100 7 -30 17 -69 22 -87 15 -48 14 -210 -1 -228 -7 -8 -10 -15 -6 -15
17 0 -31 -70 -79 -116 -193 -183 -435 -2 -361 271 26 97 64 173 206 409 57 96
65 106 77 90 7 -10 13 -24 13 -31z"/>
<path d="M530 2170 c-9 -6 -10 -10 -3 -10 6 0 15 5 18 10 8 12 4 12 -15 0z"/>
</g>
</svg>
